<svg width="120" height="40" viewBox="0 0 120 40" fill="none" xmlns="http://www.w3.org/2000/svg">
  <path d="M15 10H10V15H5V30H10V15H15V30H20V15H25V10H15Z" fill="#1F5AE0"/>
  <path d="M35 15C35 12.2386 37.2386 10 40 10C42.7614 10 45 12.2386 45 15V25C45 27.7614 42.7614 30 40 30C37.2386 30 35 27.7614 35 25V15ZM40 15V25H40.01V15H40Z" fill="#1F5AE0"/>
  <path d="M55 10V25H60V20L65 30H70L65 20C67.7614 20 70 17.7614 70 15C70 12.2386 67.7614 10 65 10H55ZM60 15H65V15.01H60V15Z" fill="#1F5AE0"/>
  <path d="M80 10V25C80 27.7614 82.2386 30 85 30C87.7614 30 90 27.7614 90 25V10H85V25H85.01V10H80Z" fill="#1F5AE0"/>
  <text x="0" y="38" font-family="Nunito, sans-serif" font-size="8" font-weight="300" fill="#666666">Help Center</text>
</svg>

